<svg xmlns="http://www.w3.org/2000/svg" width="129" height="24" viewBox="0 0 129 24" fill="none">
    <path d="M5.29545 6.36364V18H3.88636V7.84091H3.81818L0.977273 9.72727V8.29545L3.88636 6.36364H5.29545ZM12.5057 18.1591C12.0284 18.1515 11.5511 18.0606 11.0739 17.8864C10.5966 17.7121 10.161 17.4186 9.76705 17.0057C9.37311 16.589 9.05682 16.0265 8.81818 15.3182C8.57955 14.6061 8.46023 13.7121 8.46023 12.6364C8.46023 11.6061 8.55682 10.6932 8.75 9.89773C8.94318 9.09848 9.22348 8.42614 9.59091 7.88068C9.95833 7.33144 10.4015 6.91477 10.9205 6.63068C11.4432 6.34659 12.0322 6.20455 12.6875 6.20455C13.339 6.20455 13.9186 6.33523 14.4261 6.59659C14.9375 6.85417 15.3542 7.21401 15.6761 7.67614C15.9981 8.13826 16.2064 8.67045 16.3011 9.27273H14.9148C14.786 8.75 14.536 8.31629 14.1648 7.97159C13.7936 7.62689 13.3011 7.45455 12.6875 7.45455C11.786 7.45455 11.0758 7.84659 10.5568 8.63068C10.0417 9.41477 9.7822 10.5152 9.77841 11.9318H9.86932C10.0814 11.6098 10.3333 11.3352 10.625 11.108C10.9205 10.8769 11.2462 10.6989 11.6023 10.5739C11.9583 10.4489 12.3352 10.3864 12.733 10.3864C13.3996 10.3864 14.0095 10.553 14.5625 10.8864C15.1155 11.2159 15.5587 11.6723 15.892 12.2557C16.2254 12.8352 16.392 13.5 16.392 14.25C16.392 14.9697 16.2311 15.6288 15.9091 16.2273C15.5871 16.822 15.1345 17.2955 14.5511 17.6477C13.9716 17.9962 13.2898 18.1667 12.5057 18.1591ZM12.5057 16.9091C12.983 16.9091 13.411 16.7898 13.7898 16.5511C14.1723 16.3125 14.4735 15.9924 14.6932 15.5909C14.9167 15.1894 15.0284 14.7424 15.0284 14.25C15.0284 13.7689 14.9205 13.3314 14.7045 12.9375C14.4924 12.5398 14.1989 12.2235 13.8239 11.9886C13.4527 11.7538 13.0284 11.6364 12.5511 11.6364C12.1913 11.6364 11.8561 11.7083 11.5455 11.8523C11.2348 11.9924 10.9621 12.1856 10.7273 12.4318C10.4962 12.678 10.3144 12.9602 10.1818 13.2784C10.0492 13.5928 9.98295 13.9242 9.98295 14.2727C9.98295 14.7348 10.0909 15.1667 10.3068 15.5682C10.5265 15.9697 10.8258 16.2936 11.2045 16.5398C11.5871 16.786 12.0208 16.9091 12.5057 16.9091ZM19.6264 16.5114C19.3461 16.5114 19.1056 16.411 18.9048 16.2102C18.7041 16.0095 18.6037 15.7689 18.6037 15.4886C18.6037 15.2083 18.7041 14.9678 18.9048 14.767C19.1056 14.5663 19.3461 14.4659 19.6264 14.4659C19.9067 14.4659 20.1473 14.5663 20.348 14.767C20.5488 14.9678 20.6491 15.2083 20.6491 15.4886C20.6491 15.6742 20.6018 15.8447 20.5071 16C20.4162 16.1553 20.2931 16.2803 20.1378 16.375C19.9863 16.4659 19.8158 16.5114 19.6264 16.5114ZM19.6264 10.625C19.3461 10.625 19.1056 10.5246 18.9048 10.3239C18.7041 10.1231 18.6037 9.88258 18.6037 9.60227C18.6037 9.32197 18.7041 9.08144 18.9048 8.88068C19.1056 8.67992 19.3461 8.57955 19.6264 8.57955C19.9067 8.57955 20.1473 8.67992 20.348 8.88068C20.5488 9.08144 20.6491 9.32197 20.6491 9.60227C20.6491 9.78788 20.6018 9.95833 20.5071 10.1136C20.4162 10.2689 20.2931 10.3939 20.1378 10.4886C19.9863 10.5795 19.8158 10.625 19.6264 10.625ZM26.7372 6.20455C27.2145 6.20833 27.6918 6.29924 28.169 6.47727C28.6463 6.6553 29.0819 6.95076 29.4759 7.36364C29.8698 7.77273 30.1861 8.33144 30.4247 9.03977C30.6634 9.74811 30.7827 10.6364 30.7827 11.7045C30.7827 12.7386 30.6842 13.6572 30.4872 14.4602C30.294 15.2595 30.0137 15.9337 29.6463 16.483C29.2827 17.0322 28.8395 17.4489 28.3168 17.733C27.7978 18.017 27.2107 18.1591 26.5554 18.1591C25.9039 18.1591 25.3224 18.0303 24.8111 17.7727C24.3035 17.5114 23.8868 17.1496 23.5611 16.6875C23.2391 16.2216 23.0327 15.6818 22.9418 15.0682H24.3281C24.4531 15.6023 24.7012 16.0436 25.0724 16.392C25.4474 16.7367 25.9418 16.9091 26.5554 16.9091C27.4531 16.9091 28.1615 16.517 28.6804 15.733C29.2031 14.9489 29.4645 13.8409 29.4645 12.4091H29.3736C29.1615 12.7273 28.9096 13.0019 28.6179 13.233C28.3262 13.464 28.0024 13.642 27.6463 13.767C27.2902 13.892 26.9115 13.9545 26.5099 13.9545C25.8433 13.9545 25.2315 13.7898 24.6747 13.4602C24.1217 13.1269 23.6785 12.6705 23.3452 12.0909C23.0156 11.5076 22.8509 10.8409 22.8509 10.0909C22.8509 9.37879 23.0099 8.72727 23.3281 8.13636C23.6501 7.54167 24.1009 7.06818 24.6804 6.71591C25.2637 6.36364 25.9493 6.19318 26.7372 6.20455ZM26.7372 7.45455C26.2599 7.45455 25.83 7.57386 25.4474 7.8125C25.0687 8.04735 24.7675 8.36553 24.544 8.76705C24.3243 9.16477 24.2145 9.60606 24.2145 10.0909C24.2145 10.5758 24.3205 11.017 24.5327 11.4148C24.7486 11.8087 25.0421 12.1231 25.4134 12.358C25.7884 12.589 26.2145 12.7045 26.6918 12.7045C27.0516 12.7045 27.3868 12.6345 27.6974 12.4943C28.008 12.3504 28.2789 12.1553 28.5099 11.9091C28.7448 11.6591 28.9285 11.3769 29.0611 11.0625C29.1937 10.7443 29.2599 10.4129 29.2599 10.0682C29.2599 9.61364 29.1501 9.1875 28.9304 8.78977C28.7145 8.39205 28.4152 8.07008 28.0327 7.82386C27.6539 7.57765 27.2221 7.45455 26.7372 7.45455Z" fill="#8D9094"/>
    <rect x="128" y="3" width="18" height="24" rx="2" transform="rotate(90 128 3)" stroke="#8D9094" stroke-width="2"/>
</svg>