<svg xmlns="http://www.w3.org/2000/svg" width="128" height="24" viewBox="0 0 128 24" fill="none">
    <path d="M5.29545 6.36364V18H3.88636V7.84091H3.81818L0.977273 9.72727V8.29545L3.88636 6.36364H5.29545ZM9.64205 16.5114C9.36174 16.5114 9.12121 16.411 8.92045 16.2102C8.7197 16.0095 8.61932 15.7689 8.61932 15.4886C8.61932 15.2083 8.7197 14.9678 8.92045 14.767C9.12121 14.5663 9.36174 14.4659 9.64205 14.4659C9.92235 14.4659 10.1629 14.5663 10.3636 14.767C10.5644 14.9678 10.6648 15.2083 10.6648 15.4886C10.6648 15.6742 10.6174 15.8447 10.5227 16C10.4318 16.1553 10.3087 16.2803 10.1534 16.375C10.0019 16.4659 9.83144 16.5114 9.64205 16.5114ZM9.64205 10.625C9.36174 10.625 9.12121 10.5246 8.92045 10.3239C8.7197 10.1231 8.61932 9.88258 8.61932 9.60227C8.61932 9.32197 8.7197 9.08144 8.92045 8.88068C9.12121 8.67992 9.36174 8.57955 9.64205 8.57955C9.92235 8.57955 10.1629 8.67992 10.3636 8.88068C10.5644 9.08144 10.6648 9.32197 10.6648 9.60227C10.6648 9.78788 10.6174 9.95833 10.5227 10.1136C10.4318 10.2689 10.3087 10.3939 10.1534 10.4886C10.0019 10.5795 9.83144 10.625 9.64205 10.625ZM17.1392 6.36364V18H15.7301V7.84091H15.6619L12.821 9.72727V8.29545L15.7301 6.36364H17.1392Z" fill="#8D9094"/>
    <rect x="111" y="4" width="16" height="16" rx="2" stroke="#8D9094" stroke-width="2"/>
</svg>