<svg xmlns="http://www.w3.org/2000/svg" width="128" height="26" viewBox="0 0 128 26" fill="none">
    <path d="M0.931818 16.6136V15.4545L6.04545 7.36364H6.88636V9.15909H6.31818L2.45455 15.2727V15.3636H9.34091V16.6136H0.931818ZM6.40909 19V16.2614V15.7216V7.36364H7.75V19H6.40909ZM12.4702 17.5114C12.1899 17.5114 11.9493 17.411 11.7486 17.2102C11.5478 17.0095 11.4474 16.7689 11.4474 16.4886C11.4474 16.2083 11.5478 15.9678 11.7486 15.767C11.9493 15.5663 12.1899 15.4659 12.4702 15.4659C12.7505 15.4659 12.991 15.5663 13.1918 15.767C13.3925 15.9678 13.4929 16.2083 13.4929 16.4886C13.4929 16.6742 13.4455 16.8447 13.3509 17C13.2599 17.1553 13.1368 17.2803 12.9815 17.375C12.83 17.4659 12.6596 17.5114 12.4702 17.5114ZM12.4702 11.625C12.1899 11.625 11.9493 11.5246 11.7486 11.3239C11.5478 11.1231 11.4474 10.8826 11.4474 10.6023C11.4474 10.322 11.5478 10.0814 11.7486 9.88068C11.9493 9.67992 12.1899 9.57955 12.4702 9.57955C12.7505 9.57955 12.991 9.67992 13.1918 9.88068C13.3925 10.0814 13.4929 10.322 13.4929 10.6023C13.4929 10.7879 13.4455 10.9583 13.3509 11.1136C13.2599 11.2689 13.1368 11.3939 12.9815 11.4886C12.83 11.5795 12.6596 11.625 12.4702 11.625ZM19.5128 19.1591C18.8461 19.1591 18.2457 19.0265 17.7116 18.7614C17.1776 18.4962 16.7495 18.1326 16.4276 17.6705C16.1056 17.2083 15.9295 16.6818 15.8991 16.0909H17.2628C17.3158 16.6174 17.5545 17.053 17.9787 17.3977C18.4067 17.7386 18.9181 17.9091 19.5128 17.9091C19.9901 17.9091 20.4143 17.7973 20.7855 17.5739C21.1605 17.3504 21.4541 17.0436 21.6662 16.6534C21.8821 16.2595 21.9901 15.8144 21.9901 15.3182C21.9901 14.8106 21.8783 14.358 21.6548 13.9602C21.4351 13.5587 21.1321 13.2424 20.7457 13.0114C20.3594 12.7803 19.9181 12.6629 19.4219 12.6591C19.0658 12.6553 18.7003 12.7102 18.3253 12.8239C17.9503 12.9337 17.6416 13.0758 17.3991 13.25L16.081 13.0909L16.7855 7.36364H22.831V8.61364H17.9673L17.5582 12.0455H17.6264C17.8651 11.8561 18.1643 11.6989 18.5241 11.5739C18.884 11.4489 19.259 11.3864 19.6491 11.3864C20.3613 11.3864 20.9957 11.5568 21.5526 11.8977C22.1132 12.2348 22.5526 12.697 22.8707 13.2841C23.1927 13.8712 23.3537 14.5417 23.3537 15.2955C23.3537 16.0379 23.187 16.7008 22.8537 17.2841C22.5241 17.8636 22.0696 18.322 21.4901 18.6591C20.9105 18.9924 20.2514 19.1591 19.5128 19.1591Z" fill="#8D9094"/>
    <rect x="111" y="1" width="16" height="24" rx="2" stroke="#8D9094" stroke-width="2"/>
</svg>