<svg xmlns="http://www.w3.org/2000/svg" width="131" height="24" viewBox="0 0 131 24" fill="none">
    <path d="M11.5455 12.1818C11.5455 13.4356 11.3106 14.5095 10.8409 15.4034C10.375 16.2936 9.73864 16.9754 8.93182 17.4489C8.12879 17.9223 7.2178 18.1591 6.19886 18.1591C5.17992 18.1591 4.26705 17.9223 3.46023 17.4489C2.6572 16.9716 2.02083 16.2879 1.55114 15.3977C1.08523 14.5038 0.852273 13.4318 0.852273 12.1818C0.852273 10.928 1.08523 9.85606 1.55114 8.96591C2.02083 8.07197 2.6572 7.38826 3.46023 6.91477C4.26705 6.44129 5.17992 6.20455 6.19886 6.20455C7.2178 6.20455 8.12879 6.44129 8.93182 6.91477C9.73864 7.38826 10.375 8.07197 10.8409 8.96591C11.3106 9.85606 11.5455 10.928 11.5455 12.1818ZM9.42614 12.1818C9.42614 11.2992 9.28788 10.5549 9.01136 9.94886C8.73864 9.33902 8.35985 8.87879 7.875 8.56818C7.39015 8.25379 6.83144 8.09659 6.19886 8.09659C5.56629 8.09659 5.00758 8.25379 4.52273 8.56818C4.03788 8.87879 3.6572 9.33902 3.38068 9.94886C3.10795 10.5549 2.97159 11.2992 2.97159 12.1818C2.97159 13.0644 3.10795 13.8106 3.38068 14.4205C3.6572 15.0265 4.03788 15.4867 4.52273 15.8011C5.00758 16.1117 5.56629 16.267 6.19886 16.267C6.83144 16.267 7.39015 16.1117 7.875 15.8011C8.35985 15.4867 8.73864 15.0265 9.01136 14.4205C9.28788 13.8106 9.42614 13.0644 9.42614 12.1818ZM13.4474 21.2727V9.27273H15.4702V10.7159H15.5895C15.6955 10.5038 15.8452 10.2784 16.0384 10.0398C16.2315 9.79735 16.4929 9.59091 16.8224 9.42045C17.152 9.24621 17.5724 9.15909 18.0838 9.15909C18.758 9.15909 19.366 9.33144 19.9077 9.67614C20.4531 10.017 20.8849 10.5227 21.2031 11.1932C21.5251 11.8598 21.6861 12.678 21.6861 13.6477C21.6861 14.6061 21.5289 15.4205 21.2145 16.0909C20.9001 16.7614 20.4721 17.2727 19.9304 17.625C19.3887 17.9773 18.7751 18.1534 18.0895 18.1534C17.5895 18.1534 17.1747 18.0701 16.8452 17.9034C16.5156 17.7367 16.2505 17.536 16.0497 17.3011C15.8527 17.0625 15.6993 16.8371 15.5895 16.625H15.5043V21.2727H13.4474ZM15.4645 13.6364C15.4645 14.2008 15.544 14.6951 15.7031 15.1193C15.866 15.5436 16.099 15.875 16.402 16.1136C16.7088 16.3485 17.08 16.4659 17.5156 16.4659C17.9702 16.4659 18.3509 16.3447 18.6577 16.1023C18.9645 15.8561 19.1955 15.5208 19.3509 15.0966C19.5099 14.6686 19.5895 14.1818 19.5895 13.6364C19.5895 13.0947 19.5118 12.6136 19.3565 12.1932C19.2012 11.7727 18.9702 11.4432 18.6634 11.2045C18.3565 10.9659 17.974 10.8466 17.5156 10.8466C17.0762 10.8466 16.7031 10.9621 16.3963 11.1932C16.0895 11.4242 15.8565 11.7481 15.6974 12.1648C15.5421 12.5814 15.4645 13.072 15.4645 13.6364ZM25.4304 15.2159L28.9247 9.27273H31.0384V18H29.0497V12.0511L25.5668 18H23.4474V9.27273H25.4304V15.2159ZM38.9233 9.27273V10.9602H35.1619V18H33.1506V9.27273H38.9233ZM42.5554 15.2159L46.0497 9.27273H48.1634V18H46.1747V12.0511L42.6918 18H40.5724V9.27273H42.5554V15.2159ZM56.2699 12.7841V14.4716H51.6222V12.7841H56.2699ZM52.2585 9.27273V18H50.2756V9.27273H52.2585ZM57.6165 9.27273V18H55.6392V9.27273H57.6165ZM62.2088 18.1761C61.6558 18.1761 61.1577 18.0777 60.7145 17.8807C60.2751 17.6799 59.9266 17.3845 59.669 16.9943C59.4152 16.6042 59.2884 16.1231 59.2884 15.5511C59.2884 15.0587 59.3793 14.6515 59.5611 14.3295C59.7429 14.0076 59.991 13.75 60.3054 13.5568C60.6198 13.3636 60.974 13.2178 61.3679 13.1193C61.7656 13.017 62.1766 12.9432 62.6009 12.8977C63.1122 12.8447 63.527 12.7973 63.8452 12.7557C64.1634 12.7102 64.3944 12.642 64.5384 12.5511C64.6861 12.4564 64.7599 12.3106 64.7599 12.1136V12.0795C64.7599 11.6515 64.633 11.3201 64.3793 11.0852C64.1255 10.8504 63.7599 10.733 63.2827 10.733C62.7789 10.733 62.3793 10.8428 62.0838 11.0625C61.7921 11.2822 61.5952 11.5417 61.4929 11.8409L59.5724 11.5682C59.724 11.0379 59.974 10.5947 60.3224 10.2386C60.6709 9.87879 61.0971 9.60985 61.6009 9.43182C62.1046 9.25 62.6615 9.15909 63.2713 9.15909C63.6918 9.15909 64.1103 9.20833 64.527 9.30682C64.9437 9.4053 65.3243 9.56818 65.669 9.79545C66.0137 10.0189 66.2902 10.3239 66.4986 10.7102C66.7107 11.0966 66.8168 11.5795 66.8168 12.1591V18H64.8395V16.8011H64.7713C64.6463 17.0436 64.4702 17.2708 64.2429 17.483C64.0194 17.6913 63.7372 17.8598 63.3963 17.9886C63.0592 18.1136 62.6634 18.1761 62.2088 18.1761ZM62.7429 16.6648C63.1558 16.6648 63.5137 16.5833 63.8168 16.4205C64.1198 16.2538 64.3527 16.0341 64.5156 15.7614C64.6823 15.4886 64.7656 15.1913 64.7656 14.8693V13.8409C64.7012 13.8939 64.5914 13.9432 64.4361 13.9886C64.2846 14.0341 64.1141 14.0739 63.9247 14.108C63.7353 14.142 63.5478 14.1723 63.3622 14.1989C63.1766 14.2254 63.0156 14.2481 62.8793 14.267C62.5724 14.3087 62.2978 14.3769 62.0554 14.4716C61.813 14.5663 61.6217 14.6989 61.4815 14.8693C61.3414 15.036 61.2713 15.2519 61.2713 15.517C61.2713 15.8958 61.4096 16.1818 61.6861 16.375C61.9626 16.5682 62.3149 16.6648 62.7429 16.6648ZM68.2827 18L68.2713 16.3068H68.5724C68.7997 16.3068 68.991 16.2557 69.1463 16.1534C69.3016 16.0511 69.4304 15.8807 69.5327 15.642C69.6349 15.3996 69.7145 15.0739 69.7713 14.6648C69.8281 14.2557 69.8679 13.7462 69.8906 13.1364L70.044 9.27273H76.4077V18H74.419V10.9602H71.9134L71.777 13.7727C71.7429 14.5 71.6615 15.1307 71.5327 15.6648C71.4077 16.1951 71.2296 16.6326 70.9986 16.9773C70.7713 17.322 70.4853 17.5795 70.1406 17.75C69.7959 17.9167 69.3887 18 68.919 18H68.2827Z" fill="white"/>
    <g clip-path="url(#clip0_306_6379)">
        <path d="M125 3H113C112.204 3 111.441 3.31607 110.879 3.87868C110.316 4.44129 110 5.20435 110 6V18C110 18.7956 110.316 19.5587 110.879 20.1213C111.441 20.6839 112.204 21 113 21H125C125.796 21 126.559 20.6839 127.121 20.1213C127.684 19.5587 128 18.7956 128 18V6C128 5.20435 127.684 4.44129 127.121 3.87868C126.559 3.31607 125.796 3 125 3ZM113 5H125C125.265 5 125.52 5.10536 125.707 5.29289C125.895 5.48043 126 5.73478 126 6V14.36L122.8 11.63C122.304 11.222 121.682 10.999 121.04 10.999C120.398 10.999 119.776 11.222 119.28 11.63L112 17.7V6C112 5.73478 112.105 5.48043 112.293 5.29289C112.48 5.10536 112.735 5 113 5ZM125 19H113.56L120.56 13.16C120.694 13.0602 120.858 13.0062 121.025 13.0062C121.192 13.0062 121.356 13.0602 121.49 13.16L126 17V18C126 18.2652 125.895 18.5196 125.707 18.7071C125.52 18.8946 125.265 19 125 19Z" fill="white"/>
        <path d="M115 10C115.828 10 116.5 9.32843 116.5 8.5C116.5 7.67157 115.828 7 115 7C114.172 7 113.5 7.67157 113.5 8.5C113.5 9.32843 114.172 10 115 10Z" fill="white"/>
    </g>
    <defs>
        <clipPath id="clip0_306_6379">
            <rect width="24" height="24" fill="white" transform="translate(107)"/>
        </clipPath>
    </defs>
</svg>