<svg xmlns="http://www.w3.org/2000/svg" xmlns="http://www.w3.org/2000/svg" style="display: none;" version="1.1"> 
    <symbol id="apple"  viewBox="0,0,256,256"><g fill="inherit" fill-rule="nonzero" stroke="none" stroke-width="1" stroke-linecap="butt" stroke-linejoin="miter" stroke-miterlimit="10" stroke-dasharray="" stroke-dashoffset="0" font-family="none" font-weight="none" font-size="none" text-anchor="none" style="mix-blend-mode: normal"><g transform="translate(-0.00058,0.00009) scale(0.5,0.5)"><g id="7935ec95c421cee6d86eb22ecd114eed"><path d="M248.644,123.476c-5.45,-29.71 8.598,-60.285 25.516,-80.89c18.645,-22.735 50.642,-40.17 77.986,-42.086c4.619,31.149 -8.093,61.498 -24.826,82.965c-17.95,23.062 -48.812,40.946 -78.676,40.011zM409.034,231.131c8.461,-23.606 25.223,-44.845 51.227,-59.175c-26.278,-32.792 -63.173,-51.83 -97.99,-51.83c-46.065,0 -65.542,21.947 -97.538,21.947c-32.96,0 -57.965,-21.947 -97.866,-21.947c-39.127,0 -80.776,23.848 -107.19,64.577c-9.712,15.055 -16.291,33.758 -19.879,54.59c-9.956,58.439 4.916,134.557 49.279,202.144c21.57,32.796 50.321,69.737 87.881,70.059c33.459,0.327 42.951,-21.392 88.246,-21.616c45.362,-0.258 53.959,21.841 87.372,21.522c37.571,-0.317 67.906,-41.199 89.476,-73.991c15.359,-23.532 21.167,-35.418 33.11,-62.023c-60.727,-22.901 -85.703,-89.817 -66.128,-144.257z"></path></g></g></g></symbol>
    <symbol id="chrome" viewBox="0,0,256,256"><g fill="inherit" fill-rule="nonzero" stroke="none" stroke-width="1" stroke-linecap="butt" stroke-linejoin="miter" stroke-miterlimit="10" stroke-dasharray="" stroke-dashoffset="0" font-family="none" font-weight="none" font-size="none" text-anchor="none" style="mix-blend-mode: normal"><g transform="scale(17.06667,17.06667)"><path d="M2.50278,1.90694c1.32649,-1.18597 3.07756,-1.90694 4.99722,-1.90694c2.8784,0 5.3778,1.62097 6.6351,4h-6.6351c-1.4541,0 -2.70108,0.88673 -3.22971,2.14895z"></path><path d="M1.74548,2.68942c-1.08962,1.3021 -1.74548,2.97965 -1.74548,4.81058c0,3.3241 2.16179,6.1427 5.15637,7.1267l2.81089,-3.6576c-0.15286,0.0204 -0.30883,0.0309 -0.46726,0.0309c-1.66354,0 -3.05602,-1.16058 -3.41191,-2.71623c-0.01934,-0.02814 -0.03609,-0.05869 -0.04974,-0.09147z"></path><path d="M6.2149,14.8904c0.41755,0.072 0.84694,0.1096 1.2851,0.1096c4.1426,0 7.5,-3.3574 7.5,-7.5c0,-0.87852 -0.151,-1.72172 -0.4285,-2.50508c-0.0233,0.00335 -0.0472,0.00508 -0.0715,0.00508h-4.55051c0.64831,0.63526 1.05051,1.52066 1.05051,2.5c0,0.92321 -0.3574,1.76293 -0.9415,2.38832c-0.0039,0.00551 -0.0079,0.01096 -0.012,0.01636z"></path><path d="M5,7.5c0,-1.38071 1.11929,-2.5 2.5,-2.5c1.38071,0 2.5,1.11929 2.5,2.5c0,1.38071 -1.11929,2.5 -2.5,2.5c-1.38071,0 -2.5,-1.11929 -2.5,-2.5z"></path></g></g></symbol>
</svg>