<?xml version="1.0" ?><!-- Uploaded to: SVG Repo, www.svgrepo.com, Generator: SVG Repo Mixer Tools -->
<svg fill="#000000" width="800px" height="800px" viewBox="0 0 32 32" data-name="Layer 2" id="Layer_2" xmlns="http://www.w3.org/2000/svg"><title/><path d="M28.4,1H3.6A2.61,2.61,0,0,0,1,3.6V21.4A2.61,2.61,0,0,0,3.6,24h8.21l-.68,5H10a1,1,0,0,0,0,2H22a1,1,0,0,0,0-2H20.85L20,24H28.4A2.61,2.61,0,0,0,31,21.4V3.6A2.61,2.61,0,0,0,28.4,1ZM18.82,29H13.15l.68-5H18ZM29,21.4a.6.6,0,0,1-.6.6H3.6a.6.6,0,0,1-.6-.6V3.6A.6.6,0,0,1,3.6,3H28.4a.6.6,0,0,1,.6.6Z"/></svg>