<svg version="1.1" xmlns="http://www.w3.org/2000/svg" xmlns:xlink="http://www.w3.org/1999/xlink" width="800px" height="800px" viewBox="0,0,256,256"><g fill="#ffffff" fill-rule="nonzero" stroke="none" stroke-width="1" stroke-linecap="butt" stroke-linejoin="miter" stroke-miterlimit="10" stroke-dasharray="" stroke-dashoffset="0" font-family="none" font-weight="none" font-size="none" text-anchor="none" style="mix-blend-mode: normal"><g transform="scale(17.06667,17.06667)"><path d="M2.50278,1.90694c1.32649,-1.18597 3.07756,-1.90694 4.99722,-1.90694c2.8784,0 5.3778,1.62097 6.6351,4h-6.6351c-1.4541,0 -2.70108,0.88673 -3.22971,2.14895z"></path><path d="M1.74548,2.68942c-1.08962,1.3021 -1.74548,2.97965 -1.74548,4.81058c0,3.3241 2.16179,6.1427 5.15637,7.1267l2.81089,-3.6576c-0.15286,0.0204 -0.30883,0.0309 -0.46726,0.0309c-1.66354,0 -3.05602,-1.16058 -3.41191,-2.71623c-0.01934,-0.02814 -0.03609,-0.05869 -0.04974,-0.09147z"></path><path d="M6.2149,14.8904c0.41755,0.072 0.84694,0.1096 1.2851,0.1096c4.1426,0 7.5,-3.3574 7.5,-7.5c0,-0.87852 -0.151,-1.72172 -0.4285,-2.50508c-0.0233,0.00335 -0.0472,0.00508 -0.0715,0.00508h-4.55051c0.64831,0.63526 1.05051,1.52066 1.05051,2.5c0,0.92321 -0.3574,1.76293 -0.9415,2.38832c-0.0039,0.00551 -0.0079,0.01096 -0.012,0.01636z"></path><path d="M5,7.5c0,-1.38071 1.11929,-2.5 2.5,-2.5c1.38071,0 2.5,1.11929 2.5,2.5c0,1.38071 -1.11929,2.5 -2.5,2.5c-1.38071,0 -2.5,-1.11929 -2.5,-2.5z"></path></g></g></svg>