<svg version="1.1" xmlns="http://www.w3.org/2000/svg" width="800px"
     height="800px" viewBox="0,0,256,256">
    <g fill="#ffffff" fill-rule="nonzero" stroke="none" stroke-width="1"
       stroke-linecap="butt" stroke-linejoin="miter" stroke-miterlimit="10"
       stroke-dasharray="" stroke-dashoffset="0" font-family="none"
       font-size="none"
       style="mix-blend-mode: normal">
        <g transform="translate(0,0) scale(18.28571,18.28571)">
            <path d="M10.0568,7.92753h2.9118c0.0225,-0.20193 0.0314,-0.40828 0.0314,-0.61921c0,-0.98958 -0.26566,-1.91776 -0.72933,-2.71708c0.47961,-1.27436 0.46249,-2.35594 -0.17955,-3.00234c-0.61054,-0.6079 -2.24865,-0.50921 -4.10048,0.31083c-0.13697,-0.0104 -0.27528,-0.0157 -0.41492,-0.0157c-2.54171,0 -4.67425,1.7491 -5.26367,4.10588c0.79732,-1.02082 1.63614,-1.76095 2.7567,-2.29994c-0.10189,0.0955 -0.69639,0.6865 -0.79638,0.78657c-2.95495,2.95406 -3.88681,6.81298 -2.88412,7.81584c0.76217,0.76201 2.1434,0.63333 3.72997,-0.14369c0.73774,0.37572 1.57278,0.58755 2.45746,0.58755c2.38239,0 4.40135,-1.53351 5.13269,-3.66921h-2.93422c-0.40377,0.74485 -1.19342,1.25181 -2.09971,1.25181c-0.90627,0 -1.69594,-0.50696 -2.0997,-1.25181c-0.17949,-0.33644 -0.28266,-0.72227 -0.28266,-1.13062v-0.009h4.7647zM5.29652,6.49629c0.0673,-1.1979 1.06332,-2.15358 2.27918,-2.15358c1.21587,0 2.21191,0.95565 2.27919,2.15358zM12.06458,2.19124c0.41356,0.41793 0.40322,1.18685 0.0495,2.14666c-0.60612,-0.92403 -1.48666,-1.65218 -2.52622,-2.06793c1.11151,-0.47662 2.0157,-0.53976 2.47673,-0.0787zM2.15318,12.10221c-0.52774,-0.52791 -0.36864,-1.63591 0.31122,-2.97079c0.42321,1.18754 1.24782,2.1845 2.31089,2.82673c-1.17718,0.53436 -2.14066,0.6251 -2.62211,0.14406z">
            </path>
        </g>
    </g>
</svg>