<svg version="1.1" xmlns="http://www.w3.org/2000/svg" width="800px"
     height="800px" viewBox="0,0,256,256">
    <g fill="#ffffff" fill-rule="nonzero" stroke="none" stroke-width="1"
       stroke-linecap="butt" stroke-linejoin="miter" stroke-miterlimit="10"
       stroke-dasharray="" stroke-dashoffset="0" font-family="none"
    font-size="none"
       style="mix-blend-mode: normal">
        <g transform="translate(1.2288,5.12) scale(10.24,10.24)">
            <path d="M12.474,24c-0.054,0.001 -0.118,0.001 -0.182,0.001c-2.534,0 -4.886,-0.778 -6.83,-2.108l0.042,0.027c-2.002,-1.361 -3.565,-3.23 -4.521,-5.425l-0.032,-0.081c-0.534,-1.224 -0.869,-2.645 -0.925,-4.139l-0.001,-0.022c-0.017,-0.285 -0.026,-0.619 -0.026,-0.954c0,-1.289 0.14,-2.544 0.407,-3.753l-0.021,0.115c0.357,-1.63 0.885,-3.07 1.58,-4.41l-0.046,0.099c0.642,-1.303 1.471,-2.412 2.467,-3.345l0.006,-0.006l-0.152,3.882c0.10133,-0.12933 0.41433,-0.20067 0.939,-0.214c0.52467,-0.01333 0.847,0.058 0.967,0.214c0.517,-0.854 1.278,-1.516 2.187,-1.895l0.031,-0.011c0.943,-0.482 2.053,-0.78 3.228,-0.815h0.012c-0.638,0.59 -1.186,1.266 -1.629,2.011l-0.023,0.041c-0.484,0.619 -0.785,1.402 -0.808,2.254v0.005c0.243,0.077 0.535,0.142 0.834,0.183l0.029,0.003c0.34533,0.05067 0.63533,0.08533 0.87,0.104c0.23467,0.01867 0.54767,0.037 0.939,0.055c0.39133,0.018 0.624,0.032 0.698,0.042c0.138,0.046 0.18167,0.25567 0.131,0.629c-0.057,0.396 -0.207,0.748 -0.426,1.046l0.004,-0.006c-0.072,0.094 -0.147,0.178 -0.227,0.255l-0.001,0.001c-0.227,0.184 -0.483,0.347 -0.757,0.48l-0.024,0.01c-0.404,0.216 -0.872,0.379 -1.367,0.466l-0.028,0.004l0.212,2.616l-1.92,-0.926c-0.098,0.208 -0.156,0.453 -0.156,0.711c0,0.148 0.019,0.291 0.054,0.428l-0.003,-0.012c0.096,0.357 0.268,0.666 0.499,0.921l-0.002,-0.002c0.242,0.26 0.546,0.457 0.89,0.569l0.015,0.004c0.219,0.078 0.471,0.123 0.735,0.123c0.136,0 0.27,-0.012 0.399,-0.035l-0.014,0.002c0.509,-0.093 0.963,-0.26 1.377,-0.492l-0.022,0.012c0.43333,-0.23467 0.818,-0.442 1.154,-0.622c0.268,-0.152 0.589,-0.242 0.93,-0.242c0.03,0 0.06,0.001 0.089,0.002h-0.004h0.021c0.467,0 0.893,0.173 1.218,0.458l-0.002,-0.002c0.184,0.166 0.299,0.405 0.299,0.671c0,0.081 -0.011,0.159 -0.03,0.233l0.001,-0.006c-0.00933,0.01867 -0.02067,0.044 -0.034,0.076c-0.036,0.066 -0.075,0.122 -0.119,0.174l0.001,-0.001c-0.069,0.086 -0.151,0.158 -0.245,0.212l-0.004,0.002c-0.126,0.068 -0.272,0.118 -0.427,0.144l-0.008,0.001c-0.11,0.02 -0.236,0.032 -0.364,0.032c-0.097,0 -0.193,-0.007 -0.287,-0.019l0.011,0.001c-0.48,0.803 -1.16,1.442 -1.973,1.859l-0.027,0.013c-0.645,0.286 -1.398,0.452 -2.189,0.452c-0.249,0 -0.493,-0.016 -0.733,-0.048l0.028,0.003c0.625,0.527 1.379,0.922 2.207,1.132l0.038,0.008c0.404,0.108 0.867,0.17 1.346,0.17c0.347,0 0.687,-0.033 1.016,-0.095l-0.034,0.005c0.804,-0.16 1.519,-0.409 2.183,-0.742l-0.049,0.022c0.679,-0.329 1.262,-0.733 1.773,-1.212l-0.004,0.003c0.441,-0.407 0.812,-0.883 1.098,-1.411l0.014,-0.029c0.344,-0.706 0.545,-1.536 0.545,-2.413c0,-0.087 -0.002,-0.173 -0.006,-0.259v0.012c-0.031,-0.944 -0.218,-1.835 -0.537,-2.66l0.019,0.055c-0.228,-0.678 -0.602,-1.256 -1.086,-1.719l-0.002,-0.001c0.723,0.3 1.347,0.669 1.91,1.111l-0.017,-0.013c0.475,0.41 0.84,0.933 1.056,1.529l0.008,0.025c0.015,-0.208 0.023,-0.45 0.023,-0.695c0,-3.191 -1.436,-6.047 -3.698,-7.956l-0.016,-0.013c2.344,0.63 4.306,1.998 5.674,3.834l0.02,0.027c1.309,1.909 2.091,4.269 2.091,6.812c0,0.119 -0.002,0.238 -0.005,0.356v-0.017c0,0.036 0.001,0.078 0.001,0.12c0,1.217 -0.205,2.386 -0.583,3.474l0.022,-0.074c-0.423,1.256 -1.002,2.346 -1.729,3.32l0.022,-0.031c-0.762,1.027 -1.622,1.917 -2.583,2.685l-0.029,0.022c-2.02,1.592 -4.6,2.555 -7.405,2.56h-0.001z"></path>
        </g>
    </g>
</svg>