<svg version="1.1" xmlns="http://www.w3.org/2000/svg" width="800px"
     height="800px" viewBox="0,0,256,256">
    <g fill="#ffffff" fill-rule="nonzero" stroke="none" stroke-width="1"
       stroke-linecap="butt" stroke-linejoin="miter" stroke-miterlimit="10"
       stroke-dasharray="" stroke-dashoffset="0" font-family="none"
       font-size="none"
       style="mix-blend-mode: normal">
        <g transform="translate(0.004,0) scale(8,8)">
            <path d="M30.975,16c0,0.006 0,0.013 0,0.02c0,4.423 -1.924,8.397 -4.98,11.13l-0.014,0.013c-1.184,0.609 -2.584,0.965 -4.066,0.965c-1.672,0 -3.238,-0.454 -4.582,-1.244l0.042,0.023c3.773,-0.829 6.623,-5.391 6.623,-10.907c0,-5.518 -2.849,-10.077 -6.623,-10.907c1.302,-0.767 2.868,-1.219 4.54,-1.219c1.482,0 2.882,0.356 4.117,0.987l-0.051,-0.024c3.071,2.746 4.994,6.719 4.994,11.142c0,0.007 0,0.014 0,0.022zM11.072,7.561c-1.747,2.2 -2.803,5.018 -2.803,8.083c0,0.001 0,0.003 0,0.004v0v0.704v0.001c0,3.065 1.056,5.883 2.824,8.111l-0.021,-0.027c2.046,2.744 5.266,4.515 8.902,4.56h0.007c2.238,-0.005 4.315,-0.69 6.036,-1.86l-0.038,0.024c-2.625,2.366 -6.118,3.814 -9.95,3.814c-0.011,0 -0.021,0 -0.032,0h0.002c-0.24,0 -0.478,-0.005 -0.711,-0.017c-7.959,-0.39 -14.264,-6.938 -14.264,-14.958c0,-8.27 6.705,-14.975 14.975,-14.975c0,0 0,0 0.001,0h0.056c3.822,0.011 7.304,1.456 9.939,3.825l-0.014,-0.012c-1.686,-1.144 -3.763,-1.829 -6.001,-1.836h-0.002c-3.643,0.048 -6.863,1.817 -8.889,4.53l-0.021,0.03z">
            </path>
        </g>
    </g>
</svg>