<svg version="1.1" xmlns="http://www.w3.org/2000/svg" width="800px"
     height="800px" viewBox="0,0,256,256">
    <g fill="#ffffff" fill-rule="nonzero" stroke="none" stroke-width="1"
       stroke-linecap="butt" stroke-linejoin="miter" stroke-miterlimit="10"
       stroke-dasharray="" stroke-dashoffset="0" font-family="none"
       font-size="none"
       style="mix-blend-mode: normal">
        <g transform="scale(8,8)">
            <path d="M24.836,7.164l-7.29,10.382l-10.382,7.29l7.29,-10.382zM17.098,17.098l-2.198,-2.198l-5.175,7.373l7.372,-5.176zM25.778,20.15c0.049,-0.112 0.159,-0.189 0.287,-0.189c0.044,0 0.086,0.009 0.123,0.025l-0.002,-0.001l1.15,0.487c0.119,0.046 0.202,0.159 0.202,0.292c0,0.173 -0.14,0.312 -0.312,0.312c-0.048,0 -0.094,-0.011 -0.135,-0.031l0.002,0.001l-1.15,-0.487c-0.113,-0.049 -0.191,-0.159 -0.191,-0.288c0,-0.044 0.009,-0.086 0.026,-0.124l-0.001,0.002zM4.497,11.118c0.049,-0.113 0.159,-0.191 0.288,-0.191c0.044,0 0.086,0.009 0.124,0.026l-0.002,-0.001l1.15,0.489c0.107,0.051 0.179,0.158 0.179,0.283c0,0.173 -0.14,0.312 -0.312,0.312c-0.04,0 -0.078,-0.007 -0.113,-0.021l0.002,0.001l-1.15,-0.487c-0.113,-0.049 -0.191,-0.159 -0.191,-0.288c0,-0.044 0.009,-0.086 0.026,-0.124l-0.001,0.002zM19.979,25.848c0.035,-0.015 0.075,-0.023 0.118,-0.023c0.13,0 0.242,0.08 0.289,0.193l0.001,0.002l0.467,1.158c0.017,0.037 0.027,0.081 0.027,0.127c0,0.173 -0.14,0.312 -0.312,0.312c-0.134,0 -0.248,-0.084 -0.292,-0.202l-0.001,-0.002l-0.469,-1.158c-0.015,-0.035 -0.023,-0.075 -0.023,-0.118c0,-0.13 0.08,-0.242 0.193,-0.289l0.002,-0.001zM11.319,4.413c0.034,-0.014 0.075,-0.023 0.117,-0.023c0.13,0 0.242,0.08 0.289,0.193l0.001,0.002l0.469,1.158c0.015,0.035 0.024,0.077 0.024,0.12c0,0.173 -0.14,0.313 -0.313,0.313c-0.131,0 -0.244,-0.081 -0.29,-0.196l-0.001,-0.002l-0.467,-1.158c-0.015,-0.035 -0.023,-0.075 -0.023,-0.118c0,-0.13 0.08,-0.242 0.193,-0.289l0.002,-0.001zM6.152,19.978c0.015,0.035 0.023,0.075 0.023,0.118c0,0.13 -0.08,0.242 -0.193,0.289l-0.002,0.001l-1.158,0.467c-0.037,0.017 -0.081,0.027 -0.127,0.027c-0.173,0 -0.312,-0.14 -0.312,-0.312c0,-0.134 0.084,-0.248 0.202,-0.292l0.002,-0.001l1.158,-0.469c0.035,-0.015 0.075,-0.023 0.118,-0.023c0.13,0 0.242,0.08 0.289,0.193l0.001,0.002zM27.587,11.318c0.014,0.035 0.023,0.075 0.023,0.117c0,0.13 -0.08,0.242 -0.193,0.289l-0.002,0.001l-1.158,0.469c-0.034,0.014 -0.074,0.022 -0.116,0.022c-0.173,0 -0.313,-0.14 -0.313,-0.313c0,-0.13 0.079,-0.241 0.192,-0.288l0.002,-0.001l1.158,-0.467c0.035,-0.015 0.075,-0.023 0.118,-0.023c0.13,0 0.242,0.08 0.289,0.193l0.001,0.002zM11.851,25.778c0.112,0.049 0.19,0.159 0.19,0.287c0,0.044 -0.009,0.086 -0.025,0.123l0.001,-0.002l-0.487,1.15c-0.051,0.107 -0.158,0.179 -0.283,0.179c-0.173,0 -0.312,-0.14 -0.312,-0.312c0,-0.04 0.007,-0.078 0.021,-0.113l-0.001,0.002l0.487,-1.15c0.049,-0.113 0.159,-0.191 0.288,-0.191c0.044,0 0.086,0.009 0.124,0.026l-0.002,-0.001zM20.882,4.497c0.113,0.049 0.191,0.159 0.191,0.288c0,0.044 -0.009,0.086 -0.026,0.124l0.001,-0.002l-0.489,1.15c-0.046,0.119 -0.159,0.202 -0.292,0.202c-0.173,0 -0.312,-0.14 -0.312,-0.312c0,-0.048 0.011,-0.094 0.031,-0.135l-0.001,0.002l0.487,-1.15c0.049,-0.113 0.159,-0.191 0.288,-0.191c0.044,0 0.086,0.009 0.124,0.026l-0.002,-0.001zM26.622,16v0c0,-0.173 0.14,-0.312 0.312,-0.312v0h1.25c0.171,0.001 0.31,0.141 0.31,0.312c0,0.171 -0.138,0.311 -0.31,0.312h-1.25c-0.173,0 -0.312,-0.14 -0.312,-0.312zM3.504,16v0c0,-0.173 0.14,-0.312 0.312,-0.312h1.25c0.001,0 0.002,0 0.003,0c0.173,0 0.312,0.14 0.312,0.312c0,0.172 -0.14,0.312 -0.312,0.312c-0.001,0 -0.002,0 -0.003,0h-1.25c-0.173,0 -0.312,-0.14 -0.312,-0.312zM23.51,23.51c0.057,-0.057 0.135,-0.092 0.221,-0.092c0.086,0 0.165,0.035 0.221,0.092v0l0.884,0.885c0.064,0.057 0.104,0.14 0.104,0.233c0,0.173 -0.14,0.312 -0.312,0.312c-0.092,0 -0.175,-0.04 -0.233,-0.104v0l-0.885,-0.884c-0.057,-0.057 -0.092,-0.135 -0.092,-0.221c0,-0.086 0.035,-0.165 0.092,-0.221zM7.164,7.165c0.056,-0.056 0.134,-0.091 0.221,-0.091c0.087,0 0.164,0.035 0.221,0.091v0l0.885,0.883c0.057,0.057 0.092,0.135 0.092,0.221c0,0.173 -0.14,0.313 -0.313,0.313c-0.086,0 -0.165,-0.035 -0.221,-0.092v0l-0.883,-0.885c-0.056,-0.056 -0.091,-0.134 -0.091,-0.221c0,-0.087 0.035,-0.164 0.091,-0.221v0zM8.49,23.51c0.057,0.057 0.092,0.135 0.092,0.221c0,0.086 -0.035,0.165 -0.092,0.221v0l-0.885,0.884c-0.057,0.064 -0.141,0.104 -0.233,0.104c-0.173,0 -0.312,-0.14 -0.312,-0.312c0,-0.092 0.04,-0.176 0.104,-0.233v0l0.884,-0.885c0.057,-0.057 0.135,-0.092 0.221,-0.092c0.086,0 0.165,0.035 0.221,0.092zM24.836,7.164c0.056,0.056 0.091,0.134 0.091,0.221c0,0.087 -0.035,0.164 -0.091,0.221v0l-0.884,0.885c-0.057,0.057 -0.135,0.092 -0.221,0.092c-0.173,0 -0.313,-0.14 -0.313,-0.313c0,-0.086 0.035,-0.165 0.092,-0.221v0l0.885,-0.883c0.056,-0.056 0.134,-0.091 0.221,-0.091c0.087,0 0.164,0.035 0.221,0.091v0zM16,26.622c0.173,0 0.312,0.14 0.312,0.312v0v0v1.25c-0.001,0.171 -0.141,0.31 -0.312,0.31c-0.171,0 -0.311,-0.138 -0.312,-0.31v-1.25c0,-0.173 0.14,-0.312 0.312,-0.312v0zM16,3.504c0.173,0 0.312,0.14 0.312,0.312v0v1.25c-0.001,0.171 -0.141,0.31 -0.312,0.31c-0.171,0 -0.311,-0.138 -0.312,-0.31v-1.25c0,-0.173 0.14,-0.312 0.312,-0.312v0zM16,30.058c7.764,0 14.058,-6.294 14.058,-14.058c0,-7.764 -6.294,-14.058 -14.058,-14.058c-7.764,0 -14.058,6.294 -14.058,14.058v0c0,7.764 6.294,14.058 14.058,14.058zM16,30.996v0c-8.282,0 -14.996,-6.714 -14.996,-14.996c0,-8.282 6.714,-14.996 14.996,-14.996c8.282,0 14.996,6.714 14.996,14.996v0v0c0,8.282 -6.714,14.995 -14.996,14.996z">
            </path>
        </g>
    </g>
</svg>