<svg version="1.1" xmlns="http://www.w3.org/2000/svg" xmlns:xlink="http://www.w3.org/1999/xlink" width="800px" height="800px" viewBox="0,0,256,256"><g fill="#ffffff" fill-rule="nonzero" stroke="none" stroke-width="1" stroke-linecap="butt" stroke-linejoin="miter" stroke-miterlimit="10" stroke-dasharray="" stroke-dashoffset="0" font-family="none" font-weight="none" font-size="none" text-anchor="none" style="mix-blend-mode: normal"><g transform="scale(10.66667,10.66667)"><path d="M21.86,17.86c0.09333,0 0.17667,0.04 0.25,0.12c0.06667,0.08667 0.1,0.17 0.1,0.25c0,0.08 -0.03667,0.19 -0.11,0.33l-0.32,0.46l-0.43,0.53l-0.44,0.5c-0.14,0.16667 -0.26667,0.30667 -0.38,0.42l-0.22,0.23c-0.38667,0.35333 -0.83333,0.7 -1.34,1.04c-0.50667,0.34 -1.04,0.64333 -1.6,0.91c-0.57333,0.26667 -1.15333,0.48 -1.74,0.64c-0.58667,0.16 -1.14333,0.24 -1.67,0.24c-0.6,0 -1.16333,-0.09333 -1.69,-0.28c-0.53333,-0.18667 -1.02667,-0.44667 -1.48,-0.78c-0.45333,-0.33333 -0.86,-0.72333 -1.22,-1.17c-0.35333,-0.44 -0.66,-0.92 -0.92,-1.44c-0.25333,-0.51333 -0.44667,-1.04667 -0.58,-1.6c-0.13333,-0.55333 -0.2,-1.11 -0.2,-1.67c0,-0.66667 0.10667,-1.32 0.32,-1.96c0.22,-0.64667 0.51,-1.24667 0.87,-1.8c0.09333,0.63333 0.27667,1.22333 0.55,1.77c0.27333,0.54667 0.61333,1.04667 1.02,1.5c0.4,0.45333 0.86,0.85667 1.38,1.21c0.52,0.36 1.06667,0.66 1.64,0.9c0.57333,0.24 1.16333,0.42667 1.77,0.56c0.61333,0.13333 1.21333,0.2 1.8,0.2c0.74667,0 1.47333,-0.08 2.18,-0.24c0.70667,-0.15333 1.39333,-0.39333 2.06,-0.72l0.2,-0.1zM6.36,16.59c0,0.73333 0.09,1.45 0.27,2.15c0.18,0.70667 0.44,1.38333 0.78,2.03c0.34,0.64 0.75333,1.23 1.24,1.77c0.49333,0.54667 1.04667,1.01333 1.66,1.4c-0.98,-0.13333 -1.91333,-0.38 -2.8,-0.74c-0.88667,-0.36667 -1.71333,-0.82333 -2.48,-1.37c-0.76667,-0.55333 -1.46,-1.18667 -2.08,-1.9c-0.61333,-0.71333 -1.14,-1.49 -1.58,-2.33c-0.44,-0.84 -0.77667,-1.72667 -1.01,-2.66c-0.24,-0.93333 -0.36,-1.89333 -0.36,-2.88c0,-0.54 0.10667,-1.03667 0.32,-1.49c0.20667,-0.45333 0.48333,-0.86333 0.83,-1.23c0.35333,-0.36667 0.75333,-0.68667 1.2,-0.96c0.44,-0.26667 0.89,-0.48667 1.35,-0.66c0.49333,-0.18 0.99333,-0.31 1.5,-0.39c0.52,-0.08 1.03667,-0.12 1.55,-0.12c0.46667,0 0.94,0.03333 1.42,0.1c0.48,0.08 0.94667,0.19667 1.4,0.35c0.45333,0.15333 0.89333,0.34333 1.32,0.57c0.42,0.23333 0.80667,0.51 1.16,0.83c-0.23333,0 -0.46667,0.02333 -0.7,0.07c-0.22,0.04667 -0.43667,0.12333 -0.65,0.23v-0.02c-0.42,0.18667 -0.82,0.43333 -1.2,0.74c-0.38,0.30667 -0.73,0.65333 -1.05,1.04c-0.32,0.38667 -0.61,0.80667 -0.87,1.26c-0.25333,0.44667 -0.47,0.91 -0.65,1.39c-0.18,0.47333 -0.32,0.95333 -0.42,1.44c-0.1,0.48 -0.15,0.94 -0.15,1.38zM11.96,0.06c1.13333,0 2.24333,0.13 3.33,0.39c1.08667,0.25333 2.11,0.63667 3.07,1.15c0.95333,0.51333 1.82667,1.15667 2.62,1.93c0.78667,0.77333 1.44667,1.67333 1.98,2.7c0.32667,0.62667 0.58,1.28 0.76,1.96c0.18667,0.66667 0.28,1.36 0.28,2.08c0,0.59333 -0.07667,1.16 -0.23,1.7c-0.16,0.53333 -0.39,1.02667 -0.69,1.48c-0.3,0.45333 -0.66667,0.86 -1.1,1.22c-0.42667,0.35333 -0.91,0.64667 -1.45,0.88c-0.36,0.16 -0.73,0.28 -1.11,0.36c-0.38667,0.08667 -0.77333,0.13 -1.16,0.13c-0.28,0 -0.60333,-0.01 -0.97,-0.03c-0.36,-0.02 -0.72667,-0.06 -1.1,-0.12c-0.36667,-0.06667 -0.71667,-0.16 -1.05,-0.28c-0.33333,-0.12667 -0.61333,-0.29333 -0.84,-0.5c-0.08,-0.06 -0.15667,-0.14 -0.23,-0.24c-0.06667,-0.10667 -0.1,-0.21667 -0.1,-0.33c0,-0.1 0.05333,-0.21667 0.16,-0.35c0.10667,-0.13333 0.22333,-0.3 0.35,-0.5c0.13333,-0.18667 0.25333,-0.41333 0.36,-0.68c0.10667,-0.26667 0.16,-0.58333 0.16,-0.95c0,-0.70667 -0.13333,-1.36 -0.4,-1.96c-0.26667,-0.60667 -0.62,-1.15333 -1.06,-1.64c-0.44,-0.49333 -0.94667,-0.92 -1.52,-1.28c-0.57333,-0.36667 -1.17,-0.66333 -1.79,-0.89c-0.56,-0.2 -1.13333,-0.34667 -1.72,-0.44c-0.58,-0.09333 -1.16667,-0.14 -1.76,-0.14c-1.03333,0 -2.05333,0.15 -3.06,0.45c-1.00667,0.3 -1.92333,0.76333 -2.75,1.39c0.47333,-1.16 1.07667,-2.20333 1.81,-3.13c0.73333,-0.92 1.57333,-1.70333 2.52,-2.35c0.94,-0.64667 1.97333,-1.14333 3.1,-1.49c1.13333,-0.34667 2.32667,-0.52 3.58,-0.52z"></path></g></g></svg>