<?xml version="1.0" ?>

<!-- Uploaded to: SVG Repo, www.svgrepo.com, Generator: SVG Repo Mixer Tools -->
<svg fill="#000000" width="800px" height="800px" viewBox="0 0 32 32"
     xmlns="http://www.w3.org/2000/svg">

    <title/>

    <g id="Layer_10">

        <path d="M23.43,1H8.57A3.57,3.57,0,0,0,5,4.57V27.43A3.57,3.57,0,0,0,8.57,31H23.43A3.57,3.57,0,0,0,27,27.43V4.57A3.57,3.57,0,0,0,23.43,1ZM25,27.43A1.58,1.58,0,0,1,23.43,29H8.57A1.58,1.58,0,0,1,7,27.43V4.57A1.58,1.58,0,0,1,8.57,3H23.43A1.58,1.58,0,0,1,25,4.57Z"/>

        <path d="M16,24.5A1.5,1.5,0,1,0,17.5,26,1.5,1.5,0,0,0,16,24.5Zm0,2a.5.5,0,1,1,.5-.5A.5.5,0,0,1,16,26.5Z"/>

    </g>

</svg>